<?xml version="1.0" standalone="no"?>
<!DOCTYPE svg PUBLIC "-//W3C//DTD SVG 20010904//EN"
 "http://www.w3.org/TR/2001/REC-SVG-20010904/DTD/svg10.dtd">
<svg version="1.0" xmlns="http://www.w3.org/2000/svg"
 width="512.000000pt" height="512.000000pt" viewBox="0 0 512.000000 512.000000"
 preserveAspectRatio="xMidYMid meet">
<metadata>
Created by potrace 1.11, written by Peter Selinger 2001-2013
</metadata>
<g transform="translate(0.000000,512.000000) scale(0.100000,-0.100000)"
fill="#000000" stroke="none">
<path d="M0 2560 l0 -2560 2560 0 2560 0 0 2560 0 2560 -2560 0 -2560 0 0
-2560z m2640 1628 c0 -6 -6 -5 -15 2 -8 7 -15 14 -15 16 0 2 7 1 15 -2 8 -4
15 -11 15 -16z m175 -62 l29 -23 19 23 c10 13 22 24 26 24 4 0 7 -27 7 -60
l-1 -59 -24 15 c-15 11 -26 13 -30 6 -8 -13 -61 -34 -61 -25 0 4 12 19 26 34
l25 26 -23 19 c-27 22 -43 44 -31 44 4 0 21 -11 38 -24z m-445 -141 c0 -8 -44
-23 -53 -18 -14 8 4 23 29 23 13 0 24 -2 24 -5z m10 -65 c13 -11 18 -20 12
-20 -7 0 -12 -7 -12 -16 0 -11 -6 -13 -19 -9 -11 3 -23 0 -27 -7 -5 -8 -10 -3
-15 16 -15 55 17 74 61 36z m150 10 c0 -5 16 -10 36 -10 l36 0 -23 -21 c-13
-11 -19 -18 -12 -14 7 3 27 -2 45 -12 25 -13 29 -18 16 -21 -11 -2 -18 -13
-18 -28 0 -19 -5 -24 -26 -24 -16 0 -24 5 -21 13 8 23 -13 47 -43 47 -26 0
-30 4 -30 28 0 27 15 52 32 52 4 0 8 -4 8 -10z m592 -11 c59 0 60 0 42 -20
-17 -18 -16 -20 7 -47 13 -15 30 -33 38 -39 25 -22 -8 -15 -36 7 -14 11 -29
20 -34 20 -17 0 -19 -40 -4 -70 13 -24 13 -30 2 -30 -13 0 -32 15 -120 93 -39
34 -30 35 20 1 55 -37 60 12 7 70 -25 26 -25 28 -5 21 12 -3 49 -6 83 -6z
m292 -84 c13 -30 19 -35 50 -35 66 0 74 -12 20 -30 -41 -14 -50 -21 -52 -44
-2 -15 2 -34 9 -42 9 -11 8 -14 -4 -14 -8 0 -20 14 -27 30 -7 17 -15 28 -18
25 -3 -2 -11 0 -19 6 -7 6 -23 9 -34 6 -26 -7 -66 12 -94 44 -20 22 -20 22 0
14 34 -13 65 -18 65 -9 0 4 -15 23 -32 42 l-33 34 63 -4 c34 -2 62 -1 62 4 0
23 32 3 44 -27z m-1039 -45 c-3 -5 -10 -10 -16 -10 -5 0 -9 5 -9 10 0 6 7 10
16 10 8 0 12 -4 9 -10z m40 0 c3 -5 1 -10 -4 -10 -6 0 -11 5 -11 10 0 6 2 10
4 10 3 0 8 -4 11 -10z m-255 -34 c-8 -11 -6 -18 11 -29 21 -15 21 -16 -17 -26
-22 -6 -44 -11 -50 -11 -6 0 -33 -11 -60 -25 -47 -25 -48 -25 -23 -3 14 13 35
28 45 34 17 10 17 12 -11 27 -26 14 -27 16 -9 17 12 0 27 7 34 15 9 11 17 12
32 4 16 -9 23 -7 36 12 10 14 17 18 20 11 2 -7 -1 -19 -8 -26z m395 -27 c-18
-5 -33 -5 -39 1 -7 7 4 10 30 9 39 -1 39 -1 9 -10z m-799 -48 c-9 -10 -16 -20
-16 -24 0 -3 -22 -29 -49 -57 l-49 -52 27 54 c38 72 71 125 71 114 0 -6 6 -4
13 3 19 19 22 -16 3 -38z m670 14 c18 -14 37 -25 43 -25 6 0 11 -9 11 -20 0
-14 -7 -20 -24 -20 -26 0 -39 -20 -30 -45 4 -8 2 -15 -4 -15 -6 0 -13 13 -17
29 -5 26 -12 30 -43 33 l-37 3 33 18 c28 15 33 23 28 43 -8 30 -1 30 40 -1z
m178 -49 c-6 -34 -5 -35 30 -41 48 -9 46 -27 -1 -23 -36 3 -38 2 -41 -29 -4
-44 -19 -41 -33 6 -8 28 -18 41 -33 43 -31 4 -15 23 17 20 24 -2 31 3 40 28
15 41 29 38 21 -4z m958 -209 c7 -7 24 -18 38 -24 l25 -11 -32 -7 c-38 -9 -38
-9 -29 -85 2 -8 6 -23 10 -33 16 -36 -5 -30 -49 13 -49 48 -52 66 -5 31 17
-12 30 -17 30 -12 0 19 -62 81 -80 81 -29 0 -50 11 -50 25 0 7 -12 18 -27 23
-23 8 -10 11 64 11 61 1 96 -3 105 -12z m-1616 -76 l-27 -29 30 -28 31 -29
-50 -1 c-35 -1 -57 -7 -73 -21 -44 -40 -52 -38 -26 8 13 24 24 58 23 75 -1 31
8 37 34 21 8 -5 24 2 43 18 40 33 51 24 15 -14z m-262 -256 c-6 -14 -124 -118
-124 -109 0 4 10 21 23 38 34 45 42 60 29 52 -23 -14 -12 24 13 46 14 12 25
29 25 37 1 9 9 0 19 -19 10 -19 17 -39 15 -45z m-261 -12 c-19 -13 -23 -25
-23 -72 l0 -56 -20 43 c-11 24 -24 41 -29 38 -5 -4 -5 8 1 27 9 31 14 34 52
35 40 1 40 1 19 -15z m2290 -86 c30 -31 33 -38 15 -34 -8 1 -15 -15 -19 -43
-4 -40 -6 -41 -10 -15 -4 29 -6 30 -48 27 l-45 -3 28 26 c19 18 25 30 18 38
-5 7 -12 22 -14 34 -5 20 -4 21 21 10 14 -6 38 -24 54 -40z m-194 -52 l0 -20
-9 20 c-5 11 -9 27 -9 35 -1 13 0 13 9 0 5 -8 9 -24 9 -35z m581 -157 c0 -19
-2 -20 -10 -8 -13 19 -13 30 0 30 6 0 10 -10 10 -22z m-120 -21 c-1 -21 -1
-21 -15 -3 -8 10 -12 23 -9 28 9 14 24 -2 24 -25z m-2310 3 c0 -6 -7 -13 -15
-16 -22 -9 -18 -29 8 -48 22 -16 22 -16 -10 -11 -26 5 -32 3 -38 -14 -11 -36
-28 -24 -21 14 5 27 3 37 -9 41 -29 12 -16 27 19 21 25 -4 36 -1 40 9 6 16 26
19 26 4z m-510 -16 c0 -12 6 -15 25 -10 30 8 34 -10 4 -19 -14 -5 -19 -13 -16
-26 3 -10 1 -19 -4 -19 -5 0 -9 7 -9 16 0 11 -6 15 -20 11 -27 -7 -36 10 -9
18 14 5 19 13 16 26 -3 10 -1 19 4 19 5 0 9 -7 9 -16z m2670 6 c0 -5 -5 -10
-11 -10 -5 0 -7 5 -4 10 3 6 8 10 11 10 2 0 4 -4 4 -10z m-48 -22 c2 -15 9
-22 21 -22 9 1 17 -4 17 -12 0 -8 -7 -14 -16 -14 -9 0 -18 -9 -21 -20 -5 -20
-7 -20 -24 -4 -11 9 -19 14 -19 10 0 -11 33 -70 44 -77 4 -4 4 -14 -2 -24 -5
-10 -7 -26 -5 -36 5 -18 -5 -24 -34 -20 -6 1 -15 -9 -19 -21 -6 -21 -8 -20
-21 16 -10 30 -10 41 -1 47 14 9 19 35 22 104 2 43 5 50 22 49 16 0 20 5 16
23 -2 13 0 23 6 23 6 0 12 -10 14 -22z m-99 -50 l-10 -33 -8 27 c-9 36 1 66
17 50 8 -8 8 -21 1 -44z m-203 -22 c0 -34 -15 -40 -28 -12 -11 25 -7 36 15 36
7 0 13 -11 13 -24z m-2198 -39 c-12 -42 -8 -47 29 -47 43 0 43 -17 0 -24 -31
-5 -40 -11 -45 -31 -9 -35 -20 -31 -35 11 -7 19 -19 38 -27 41 -29 11 -14 25
21 19 32 -6 35 -5 41 21 9 44 14 56 20 50 3 -3 1 -21 -4 -40z m2718 -22 c0
-40 17 -52 85 -62 55 -7 47 -21 -15 -25 -49 -3 -50 -4 -36 -83 7 -36 6 -38 -8
-22 -8 11 -17 36 -21 56 -6 34 -9 37 -31 33 -13 -2 -27 -8 -30 -13 -5 -9 -54
-13 -54 -5 0 19 16 36 34 36 11 0 32 9 45 19 21 16 23 24 17 60 -4 25 -2 41 4
41 5 0 10 -16 10 -35z m-2440 -11 c0 -8 4 -14 9 -14 5 0 11 -9 14 -20 3 -11 2
-18 -3 -15 -4 2 -15 -4 -25 -15 -23 -26 -35 -25 -28 0 4 13 0 20 -10 20 -8 0
-18 7 -21 16 -5 13 -2 15 14 11 11 -3 17 -1 14 4 -7 13 15 41 27 33 5 -3 9
-12 9 -20z m-190 -19 c0 -5 -5 -3 -10 5 -5 8 -10 20 -10 25 0 6 5 3 10 -5 5
-8 10 -19 10 -25z m-527 -18 c25 -37 25 -39 10 -84 -15 -42 -17 -45 -29 -28
-8 11 -14 22 -14 26 0 4 -16 5 -35 2 -43 -7 -46 4 -5 18 32 12 38 27 18 48
-11 10 -10 15 5 25 9 7 17 19 17 26 0 16 1 15 33 -33z m545 -38 l3 -34 -21 21
c-13 13 -18 27 -14 38 10 27 29 13 32 -25z m412 -14 c0 -9 9 -15 23 -15 13 0
32 -7 43 -15 17 -13 17 -14 2 -15 -14 0 -18 -8 -18 -34 0 -44 -16 -55 -31 -22
-10 20 -15 23 -30 16 -22 -12 -49 -13 -49 -1 0 5 14 14 30 21 29 12 41 30 20
30 -5 0 -10 11 -10 25 0 14 5 25 10 25 6 0 10 -7 10 -15z m-210 -60 c9 -5 9
-10 1 -18 -6 -6 -11 -26 -11 -44 0 -37 -7 -41 -25 -16 -18 25 -35 7 -35 -38 0
-24 -4 -38 -10 -34 -5 3 -10 17 -10 31 0 24 -23 34 -34 15 -9 -14 -43 -2 -43
15 0 8 6 14 12 14 7 0 17 19 22 43 9 36 12 39 18 20 10 -32 34 -30 27 2 -4 24
-2 25 36 21 22 -2 46 -7 52 -11z m2124 -34 c3 -5 -1 -12 -10 -15 -22 -9 -24
-8 -24 9 0 16 25 21 34 6z m-2504 -36 c5 -14 15 -24 21 -23 6 2 18 -7 26 -19
15 -22 14 -23 -6 -23 -20 0 -29 -12 -46 -65 -6 -19 -7 -19 -17 -2 -5 10 -7 30
-3 45 5 22 4 25 -6 15 -7 -7 -25 -13 -40 -13 -36 0 -42 29 -12 58 13 12 23 19
23 15 0 -4 7 3 16 15 20 29 32 28 44 -3z m2530 -5 c0 -13 7 -20 20 -20 11 0
20 -4 20 -10 0 -5 -9 -10 -19 -10 -14 0 -18 -5 -14 -20 7 -25 -13 -26 -39 -3
-19 17 -24 43 -9 43 5 0 13 9 16 20 3 11 11 20 16 20 5 0 9 -9 9 -20z m-2790
-30 c0 -5 -7 -10 -15 -10 -8 0 -15 5 -15 10 0 6 7 10 15 10 8 0 15 -4 15 -10z
m316 -205 c7 -18 61 -20 66 -3 2 6 14 -3 27 -20 19 -28 20 -31 4 -25 -33 11 3
-18 44 -37 l38 -17 -70 3 c-38 2 -71 8 -73 14 -2 5 -15 7 -28 4 -24 -6 -34 9
-14 21 15 9 12 42 -5 49 -17 6 -20 26 -5 26 6 0 13 -7 16 -15z m2515 -12 c-12
-20 -14 -14 -5 12 4 9 9 14 11 11 3 -2 0 -13 -6 -23z m-2300 -13 c10 -6 19
-17 19 -25 0 -8 9 -19 20 -25 11 -6 25 -20 31 -31 7 -15 -6 -8 -45 21 -31 23
-56 49 -56 56 0 17 5 17 31 4z m2267 -73 c-22 -34 -48 -55 -48 -38 0 4 15 30
32 57 21 31 34 43 36 33 2 -9 -7 -32 -20 -52z m228 -31 c-14 -19 -26 -42 -26
-50 0 -11 -9 -16 -27 -16 -27 0 -26 1 22 50 58 58 68 64 31 16z m-1370 -30
c-4 -18 0 -28 20 -41 14 -9 23 -19 20 -22 -3 -3 -17 2 -30 11 -32 21 -34 20
-38 -6 -2 -12 -9 -23 -17 -26 -10 -3 -12 2 -8 21 5 19 3 26 -13 30 -31 8 -24
32 13 44 53 17 60 16 53 -11z m1112 -6 c-7 -11 -16 -20 -20 -20 -4 0 -22 -13
-40 -28 -39 -34 -72 -48 -66 -30 3 7 19 22 37 33 17 11 46 30 64 42 18 12 33
22 35 22 1 1 -3 -8 -10 -19z m-2101 -88 c16 4 18 -4 20 -71 1 -42 5 -87 7
-101 3 -14 -9 4 -26 40 -17 36 -35 68 -40 71 -6 4 -12 25 -13 49 -3 40 -3 41
15 25 11 -10 27 -15 37 -13z m108 -88 c8 -20 15 -38 15 -41 0 -8 -27 22 -38
44 -15 26 -15 33 -2 33 5 0 17 -16 25 -36z m-182 -105 c8 -11 30 -31 48 -45
20 -14 27 -24 17 -24 -8 0 -27 9 -41 20 -14 11 -32 20 -40 20 -18 0 -46 40
-40 57 6 16 36 1 56 -28z m1847 1 c-62 -33 -79 -40 -96 -33 -14 5 -14 7 2 17
17 10 95 33 119 34 6 1 -6 -7 -25 -18z m-1197 -37 c7 3 20 -8 29 -24 15 -25
15 -29 2 -29 -9 0 -23 -7 -32 -16 -14 -15 -17 -15 -27 0 -7 9 -27 16 -46 17
l-34 1 28 11 c24 10 28 16 23 39 -5 28 -5 28 19 12 14 -9 31 -14 38 -11z
m1245 10 c-8 -10 -20 -32 -27 -50 -7 -17 -28 -45 -47 -62 -31 -29 -34 -30 -34
-11 0 12 -9 24 -21 28 -20 8 -19 9 13 33 33 25 119 79 127 79 2 0 -3 -8 -11
-17z m-178 -19 c-8 -8 -23 -20 -34 -25 -13 -6 -10 0 9 15 34 29 43 33 25 10z
m-693 -18 c1 0 4 -13 8 -29 6 -23 4 -27 -14 -27 -12 0 -21 6 -21 15 0 9 -6 12
-17 9 -13 -4 -14 -3 -5 3 7 6 10 17 6 27 -6 16 -3 17 17 11 13 -4 25 -8 26 -9z
m170 -31 c0 -8 -6 -15 -14 -15 -7 0 -13 -9 -13 -20 0 -11 6 -20 14 -20 7 0 19
-7 26 -15 10 -12 9 -15 -6 -15 -11 0 -28 -15 -39 -33 l-19 -32 -4 28 c-2 15
-9 27 -16 27 -8 0 -19 7 -26 15 -10 13 -9 15 9 15 14 0 21 6 21 19 0 10 7 21
15 25 8 3 15 12 15 21 0 8 8 15 18 15 10 0 19 -7 19 -15z m-708 -61 c2 -2 -7
-4 -20 -4 -13 0 -54 -8 -90 -19 -78 -22 -124 -18 -109 9 5 9 6 21 2 25 -7 7
209 -4 217 -11z m57 -96 c9 -20 25 -45 35 -54 11 -10 19 -22 19 -27 0 -6 7
-19 17 -29 9 -10 12 -18 7 -18 -8 1 -39 33 -98 106 -13 17 -28 43 -32 58 -6
26 -5 27 14 15 11 -7 28 -30 38 -51z m406 -70 c14 -21 15 -21 41 -3 l28 18
-13 -28 c-10 -23 -10 -29 0 -33 6 -2 12 -11 12 -20 0 -14 -9 -16 -57 -13 -55
3 -57 4 -35 18 26 18 28 35 7 53 -8 7 -15 16 -15 21 0 16 17 9 32 -13z m677
-24 c-45 -47 -86 -76 -93 -66 -3 5 6 15 21 23 14 8 42 29 61 46 48 44 54 42
11 -3z m-1339 -44 c8 -5 11 -10 5 -10 -5 0 -17 5 -25 10 -8 5 -10 10 -5 10 6
0 17 -5 25 -10z m924 -76 c5 -19 11 -24 23 -19 15 5 15 4 0 -13 -9 -10 -17
-24 -17 -30 0 -7 -9 -12 -20 -12 -23 0 -26 -10 -8 -28 17 -17 0 -28 -22 -14
-31 19 -47 14 -60 -18 -7 -16 -17 -30 -22 -30 -10 0 -1 39 13 55 14 15 10 25
-10 25 -10 0 -24 6 -30 14 -12 14 1 25 43 33 11 2 25 8 33 14 7 6 22 9 33 6
18 -5 26 7 21 36 -3 20 18 4 23 -19z m-339 -55 c-6 -28 -6 -29 35 -29 37 0 41
-2 30 -16 -10 -11 -23 -14 -53 -9 l-39 7 4 -47 c3 -46 3 -46 -14 -25 -10 12
-18 33 -18 46 0 21 -5 24 -36 24 l-37 0 24 24 c13 13 33 25 44 27 12 3 21 14
23 27 3 19 6 20 23 11 16 -8 19 -17 14 -40z m185 -64 c-16 -20 -40 -19 -40 0
0 17 43 38 48 23 2 -5 -2 -15 -8 -23z m-47 -29 l16 -24 -30 15 c-16 8 -27 19
-24 24 10 15 22 10 38 -15z m271 -12 c9 -3 16 -15 16 -25 0 -15 -7 -19 -36
-19 -35 0 -37 5 -9 37 12 15 10 14 29 7z m-10 -116 c-3 -4 -26 -8 -51 -8 -52
0 -50 10 5 26 36 10 58 1 46 -18z m-258 -31 c4 -4 17 -7 28 -8 20 0 20 -1 -2
-11 -15 -8 -21 -17 -16 -27 3 -9 8 -22 11 -28 3 -7 0 -13 -5 -13 -6 0 -14 9
-17 20 -7 21 -30 27 -40 10 -9 -15 -25 -12 -25 4 0 8 -9 18 -21 21 -19 6 -18
8 13 24 33 18 61 21 74 8z m364 -205 c0 -4 -5 -13 -12 -20 -9 -9 -7 -16 6 -31
10 -11 16 -26 14 -33 -3 -8 -10 -5 -23 10 -24 27 -35 28 -35 2 0 -13 -7 -20
-18 -20 -15 0 -19 9 -21 44 -2 44 -1 45 31 49 18 2 39 5 46 5 6 1 12 -2 12 -6z"/>
<path d="M1865 3349 c-4 -6 -5 -12 -2 -15 2 -3 7 2 10 11 7 17 1 20 -8 4z"/>
<path d="M3735 2620 c3 -5 8 -10 11 -10 2 0 4 5 4 10 0 6 -5 10 -11 10 -5 0
-7 -4 -4 -10z"/>
</g>
</svg>
